{
  "accessors": [
    {
      "bufferView": 0,
      "componentType": 5125,
      "count": 30423,
      "type": "SCALAR"
    },
    {
      "bufferView": 1,
      "componentType": 5126,
      "count": 7950,
      "max": [
        123.57642364502,
        684.325744628906,
        964.35986328125
      ],
      "min": [
        -94.9798202514648,
        34.0548095703125,
        616.8701171875
      ],
      "type": "VEC3"
    },
    {
      "bufferView": 2,
      "componentType": 5126,
      "count": 7950,
      "type": "VEC3"
    },
    {
      "bufferView": 3,
      "componentType": 5126,
      "count": 7950,
      "type": "VEC2"
    }
  ],
  "asset": {
    "generator": "Adobe Substance 3D Painter 7.4.1",
    "version": "2.0"
  },
  "bufferViews": [
    {
      "buffer": 0,
      "byteLength": 121692,
      "target": 34963
    },
    {
      "buffer": 0,
      "byteLength": 95400,
      "byteOffset": 121692,
      "target": 34962
    },
    {
      "buffer": 0,
      "byteLength": 95400,
      "byteOffset": 217092,
      "target": 34962
    },
    {
      "buffer": 0,
      "byteLength": 63600,
      "byteOffset": 312492,
      "target": 34962
    }
  ],
  "buffers": [
    {
      "byteLength": 376092,
      "uri": "gasstation2.bin"
    }
  ],
  "images": [
    {
      "uri": "standardSurface6SG_baseColor.png"
    },
    {
      "uri": "standardSurface6SG_occlusionRoughnessMetallic.png"
    },
    {
      "uri": "standardSurface6SG_normal.png"
    }
  ],
  "materials": [
    {
      "alphaMode": "OPAQUE",
      "name": "standardSurface6SG",
      "normalTexture": {
        "index": 2
      },
      "occlusionTexture": {
        "index": 1
      },
      "pbrMetallicRoughness": {
        "baseColorTexture": {
          "index": 0
        },
        "metallicRoughnessTexture": {
          "index": 1
        }
      }
    }
  ],
  "meshes": [
    {
      "name": "pCube3 group1",
      "primitives": [
        {
          "attributes": {
            "NORMAL": 2,
            "POSITION": 1,
            "TEXCOORD_0": 3
          },
          "indices": 0,
          "material": 0,
          "mode": 4
        }
      ]
    }
  ],
  "nodes": [
    {
      "children": [
        1,
        2,
        3,
        5,
        6,
        7,
        8,
        9,
        10,
        11,
        12,
        13,
        14,
        15,
        16,
        17,
        18,
        19,
        20,
        21,
        22,
        23,
        24,
        25,
        26,
        27,
        28,
        29,
        30,
        31,
        32,
        33,
        34,
        35,
        36,
        37
      ],
      "name": "gasstation5.obj"
    },
    {
      "name": "pCube1"
    },
    {
      "name": "pCube2"
    },
    {
      "children": [
        4
      ],
      "name": "pCube3 group1"
    },
    {
      "mesh": 0,
      "name": "pCube3 group1"
    },
    {
      "name": "group1 sweep1"
    },
    {
      "name": "group1 sweep2"
    },
    {
      "name": "group1 polySurface4 gas01"
    },
    {
      "name": "group1 gas01 polySurface1"
    },
    {
      "name": "group1 gas01 polySurface5"
    },
    {
      "name": "group1 gas01 sweep3"
    },
    {
      "name": "group1 gas01 polySurface6"
    },
    {
      "name": "group1 polySurface4 gas02"
    },
    {
      "name": "group1 gas02 polySurface5"
    },
    {
      "name": "group1 gas02 polySurface1"
    },
    {
      "name": "group1 gas02 sweep3"
    },
    {
      "name": "group1 gas02 polySurface6"
    },
    {
      "name": "pCube3 group2"
    },
    {
      "name": "group2 sweep5"
    },
    {
      "name": "group2 sweep4"
    },
    {
      "name": "group2 polySurface4 gas03"
    },
    {
      "name": "group2 gas03 polySurface1"
    },
    {
      "name": "group2 gas03 polySurface5"
    },
    {
      "name": "group2 gas03 sweep3"
    },
    {
      "name": "group2 gas03 polySurface6"
    },
    {
      "name": "group2 polySurface4 gas04"
    },
    {
      "name": "group2 gas04 polySurface1"
    },
    {
      "name": "group2 gas04 polySurface5"
    },
    {
      "name": "group2 gas04 sweep3"
    },
    {
      "name": "group2 gas04 polySurface6"
    },
    {
      "name": "pCylinder4 group3"
    },
    {
      "name": "group3 pCylinder3"
    },
    {
      "name": "group3 pCylinder2"
    },
    {
      "name": "group3 pCylinder1"
    },
    {
      "name": "pCube4 group4"
    },
    {
      "name": "group4 pCube7"
    },
    {
      "name": "pPlane1"
    },
    {
      "name": "pDisc1"
    }
  ],
  "samplers": [
    {
      "magFilter": 9729,
      "minFilter": 9985,
      "wrapS": 10497,
      "wrapT": 10497
    }
  ],
  "scene": 0,
  "scenes": [
    {
      "name": "Scene",
      "nodes": [
        0
      ]
    }
  ],
  "textures": [
    {
      "sampler": 0,
      "source": 0
    },
    {
      "sampler": 0,
      "source": 1
    },
    {
      "sampler": 0,
      "source": 2
    }
  ]
}