{
  "accessors": [
    {
      "bufferView": 0,
      "componentType": 5125,
      "count": 12744,
      "type": "SCALAR"
    },
    {
      "bufferView": 1,
      "componentType": 5126,
      "count": 2427,
      "max": [
        0.502830147743225,
        0.550939559936523,
        0.518073618412018
      ],
      "min": [
        -0.524433732032776,
        -0.49999988079071,
        -0.534890413284302
      ],
      "type": "VEC3"
    },
    {
      "bufferView": 2,
      "componentType": 5126,
      "count": 2427,
      "type": "VEC3"
    },
    {
      "bufferView": 3,
      "componentType": 5126,
      "count": 2427,
      "type": "VEC2"
    },
    {
      "bufferView": 4,
      "componentType": 5125,
      "count": 6582,
      "type": "SCALAR"
    },
    {
      "bufferView": 5,
      "componentType": 5126,
      "count": 1291,
      "max": [
        0.471232563257217,
        1.64016962051392,
        0.497373312711716
      ],
      "min": [
        -0.497634559869766,
        -1.839688539505,
        -0.514131247997284
      ],
      "type": "VEC3"
    },
    {
      "bufferView": 6,
      "componentType": 5126,
      "count": 1291,
      "type": "VEC3"
    },
    {
      "bufferView": 7,
      "componentType": 5126,
      "count": 1291,
      "type": "VEC2"
    },
    {
      "bufferView": 8,
      "componentType": 5125,
      "count": 7200,
      "type": "SCALAR"
    },
    {
      "bufferView": 9,
      "componentType": 5126,
      "count": 1767,
      "max": [
        0.500000238418579,
        1.40098547935486,
        0.500000238418579
      ],
      "min": [
        -0.499023914337158,
        -0.591761469841003,
        -0.500000476837158
      ],
      "type": "VEC3"
    },
    {
      "bufferView": 10,
      "componentType": 5126,
      "count": 1767,
      "type": "VEC3"
    },
    {
      "bufferView": 11,
      "componentType": 5126,
      "count": 1767,
      "type": "VEC2"
    },
    {
      "bufferView": 12,
      "componentType": 5125,
      "count": 13857,
      "type": "SCALAR"
    },
    {
      "bufferView": 13,
      "componentType": 5126,
      "count": 2588,
      "max": [
        0.50283008813858,
        -0.499999523162842,
        0.518073678016663
      ],
      "min": [
        -0.524433732032776,
        -1.98203277587891,
        -0.534890234470367
      ],
      "type": "VEC3"
    },
    {
      "bufferView": 14,
      "componentType": 5126,
      "count": 2588,
      "type": "VEC3"
    },
    {
      "bufferView": 15,
      "componentType": 5126,
      "count": 2588,
      "type": "VEC2"
    },
    {
      "bufferView": 16,
      "componentType": 5125,
      "count": 240,
      "type": "SCALAR"
    },
    {
      "bufferView": 17,
      "componentType": 5126,
      "count": 84,
      "max": [
        1.0,
        0.99999988079071,
        1.0
      ],
      "min": [
        -1.0,
        -0.999999940395355,
        -1.00000071525574
      ],
      "type": "VEC3"
    },
    {
      "bufferView": 18,
      "componentType": 5126,
      "count": 84,
      "type": "VEC3"
    },
    {
      "bufferView": 19,
      "componentType": 5126,
      "count": 84,
      "type": "VEC2"
    },
    {
      "bufferView": 20,
      "componentType": 5125,
      "count": 1320,
      "type": "SCALAR"
    },
    {
      "bufferView": 21,
      "componentType": 5126,
      "count": 310,
      "max": [
        0.488825559616089,
        0.5,
        0.500000238418579
      ],
      "min": [
        -0.484828948974609,
        -0.5,
        -0.486792713403702
      ],
      "type": "VEC3"
    },
    {
      "bufferView": 22,
      "componentType": 5126,
      "count": 310,
      "type": "VEC3"
    },
    {
      "bufferView": 23,
      "componentType": 5126,
      "count": 310,
      "type": "VEC2"
    }
  ],
  "asset": {
    "generator": "Adobe Substance 3D Painter 7.4.1",
    "version": "2.0"
  },
  "bufferViews": [
    {
      "buffer": 0,
      "byteLength": 50976,
      "target": 34963
    },
    {
      "buffer": 0,
      "byteLength": 29124,
      "byteOffset": 50976,
      "target": 34962
    },
    {
      "buffer": 0,
      "byteLength": 29124,
      "byteOffset": 80100,
      "target": 34962
    },
    {
      "buffer": 0,
      "byteLength": 19416,
      "byteOffset": 109224,
      "target": 34962
    },
    {
      "buffer": 0,
      "byteLength": 26328,
      "byteOffset": 128640,
      "target": 34963
    },
    {
      "buffer": 0,
      "byteLength": 15492,
      "byteOffset": 154968,
      "target": 34962
    },
    {
      "buffer": 0,
      "byteLength": 15492,
      "byteOffset": 170460,
      "target": 34962
    },
    {
      "buffer": 0,
      "byteLength": 10328,
      "byteOffset": 185952,
      "target": 34962
    },
    {
      "buffer": 0,
      "byteLength": 28800,
      "byteOffset": 196280,
      "target": 34963
    },
    {
      "buffer": 0,
      "byteLength": 21204,
      "byteOffset": 225080,
      "target": 34962
    },
    {
      "buffer": 0,
      "byteLength": 21204,
      "byteOffset": 246284,
      "target": 34962
    },
    {
      "buffer": 0,
      "byteLength": 14136,
      "byteOffset": 267488,
      "target": 34962
    },
    {
      "buffer": 0,
      "byteLength": 55428,
      "byteOffset": 281624,
      "target": 34963
    },
    {
      "buffer": 0,
      "byteLength": 31056,
      "byteOffset": 337052,
      "target": 34962
    },
    {
      "buffer": 0,
      "byteLength": 31056,
      "byteOffset": 368108,
      "target": 34962
    },
    {
      "buffer": 0,
      "byteLength": 20704,
      "byteOffset": 399164,
      "target": 34962
    },
    {
      "buffer": 0,
      "byteLength": 960,
      "byteOffset": 419868,
      "target": 34963
    },
    {
      "buffer": 0,
      "byteLength": 1008,
      "byteOffset": 420828,
      "target": 34962
    },
    {
      "buffer": 0,
      "byteLength": 1008,
      "byteOffset": 421836,
      "target": 34962
    },
    {
      "buffer": 0,
      "byteLength": 672,
      "byteOffset": 422844,
      "target": 34962
    },
    {
      "buffer": 0,
      "byteLength": 5280,
      "byteOffset": 423516,
      "target": 34963
    },
    {
      "buffer": 0,
      "byteLength": 3720,
      "byteOffset": 428796,
      "target": 34962
    },
    {
      "buffer": 0,
      "byteLength": 3720,
      "byteOffset": 432516,
      "target": 34962
    },
    {
      "buffer": 0,
      "byteLength": 2480,
      "byteOffset": 436236,
      "target": 34962
    }
  ],
  "buffers": [
    {
      "byteLength": 438716,
      "uri": "Desktop_autosave_0.bin"
    }
  ],
  "images": [
    {
      "uri": "aiStandardSurface1_baseColor.png"
    },
    {
      "uri": "aiStandardSurface1_occlusionRoughnessMetallic.png"
    },
    {
      "uri": "aiStandardSurface1_normal.png"
    },
    {
      "uri": "aiStandardSurface2_baseColor.png"
    },
    {
      "uri": "aiStandardSurface2_occlusionRoughnessMetallic.png"
    },
    {
      "uri": "aiStandardSurface2_normal.png"
    },
    {
      "uri": "aiStandardSurface3_baseColor.png"
    },
    {
      "uri": "aiStandardSurface3_occlusionRoughnessMetallic.png"
    },
    {
      "uri": "aiStandardSurface3_normal.png"
    },
    {
      "uri": "aiStandardSurface4_baseColor.png"
    },
    {
      "uri": "aiStandardSurface4_occlusionRoughnessMetallic.png"
    },
    {
      "uri": "aiStandardSurface4_normal.png"
    },
    {
      "uri": "aiStandardSurface5_baseColor.png"
    },
    {
      "uri": "aiStandardSurface5_occlusionRoughnessMetallic.png"
    },
    {
      "uri": "aiStandardSurface5_normal.png"
    },
    {
      "uri": "aiStandardSurface6_baseColor.png"
    },
    {
      "uri": "aiStandardSurface6_occlusionRoughnessMetallic.png"
    },
    {
      "uri": "aiStandardSurface6_normal.png"
    }
  ],
  "materials": [
    {
      "alphaMode": "OPAQUE",
      "name": "aiStandardSurface1",
      "normalTexture": {
        "index": 2
      },
      "occlusionTexture": {
        "index": 1
      },
      "pbrMetallicRoughness": {
        "baseColorTexture": {
          "index": 0
        },
        "metallicRoughnessTexture": {
          "index": 1
        }
      }
    },
    {
      "alphaMode": "OPAQUE",
      "name": "aiStandardSurface2",
      "normalTexture": {
        "index": 5
      },
      "occlusionTexture": {
        "index": 4
      },
      "pbrMetallicRoughness": {
        "baseColorTexture": {
          "index": 3
        },
        "metallicRoughnessTexture": {
          "index": 4
        }
      }
    },
    {
      "alphaMode": "OPAQUE",
      "name": "aiStandardSurface3",
      "normalTexture": {
        "index": 8
      },
      "occlusionTexture": {
        "index": 7
      },
      "pbrMetallicRoughness": {
        "baseColorTexture": {
          "index": 6
        },
        "metallicRoughnessTexture": {
          "index": 7
        }
      }
    },
    {
      "alphaMode": "OPAQUE",
      "name": "aiStandardSurface4",
      "normalTexture": {
        "index": 11
      },
      "occlusionTexture": {
        "index": 10
      },
      "pbrMetallicRoughness": {
        "baseColorTexture": {
          "index": 9
        },
        "metallicRoughnessTexture": {
          "index": 10
        }
      }
    },
    {
      "alphaMode": "OPAQUE",
      "name": "aiStandardSurface5",
      "normalTexture": {
        "index": 14
      },
      "occlusionTexture": {
        "index": 13
      },
      "pbrMetallicRoughness": {
        "baseColorTexture": {
          "index": 12
        },
        "metallicRoughnessTexture": {
          "index": 13
        }
      }
    },
    {
      "alphaMode": "OPAQUE",
      "name": "aiStandardSurface6",
      "normalTexture": {
        "index": 17
      },
      "occlusionTexture": {
        "index": 16
      },
      "pbrMetallicRoughness": {
        "baseColorTexture": {
          "index": 15
        },
        "metallicRoughnessTexture": {
          "index": 16
        }
      }
    }
  ],
  "meshes": [
    {
      "name": "pCube1",
      "primitives": [
        {
          "attributes": {
            "NORMAL": 2,
            "POSITION": 1,
            "TEXCOORD_0": 3
          },
          "indices": 0,
          "material": 0,
          "mode": 4
        }
      ]
    },
    {
      "name": "pCube2",
      "primitives": [
        {
          "attributes": {
            "NORMAL": 6,
            "POSITION": 5,
            "TEXCOORD_0": 7
          },
          "indices": 4,
          "material": 1,
          "mode": 4
        }
      ]
    },
    {
      "name": "pCube3",
      "primitives": [
        {
          "attributes": {
            "NORMAL": 10,
            "POSITION": 9,
            "TEXCOORD_0": 11
          },
          "indices": 8,
          "material": 2,
          "mode": 4
        }
      ]
    },
    {
      "name": "pasted__pCube1",
      "primitives": [
        {
          "attributes": {
            "NORMAL": 14,
            "POSITION": 13,
            "TEXCOORD_0": 15
          },
          "indices": 12,
          "material": 3,
          "mode": 4
        }
      ]
    },
    {
      "name": "pCylinder1",
      "primitives": [
        {
          "attributes": {
            "NORMAL": 18,
            "POSITION": 17,
            "TEXCOORD_0": 19
          },
          "indices": 16,
          "material": 4,
          "mode": 4
        }
      ]
    },
    {
      "name": "pCube4",
      "primitives": [
        {
          "attributes": {
            "NORMAL": 22,
            "POSITION": 21,
            "TEXCOORD_0": 23
          },
          "indices": 20,
          "material": 5,
          "mode": 4
        }
      ]
    }
  ],
  "nodes": [
    {
      "children": [
        1,
        3,
        5,
        7,
        9,
        11
      ],
      "name": "RootNode"
    },
    {
      "children": [
        2
      ],
      "name": "pCube1",
      "scale": [
        187.491439819336,
        3.48928999900818,
        56.258186340332
      ],
      "translation": [
        77.3661804199219,
        4.18334913253784,
        -37.7127990722656
      ]
    },
    {
      "mesh": 0,
      "name": "pCube1"
    },
    {
      "children": [
        4
      ],
      "name": "pCube2",
      "scale": [
        178.510559082031,
        2.56156086921692,
        52.2744178771973
      ],
      "translation": [
        -63.0098190307617,
        0.772244572639465,
        -36.0057411193848
      ]
    },
    {
      "mesh": 1,
      "name": "pCube2"
    },
    {
      "children": [
        6
      ],
      "name": "pCube3",
      "rotation": [
        0.997266590595245,
        -4.52430199707666e-18,
        0.0738874450325966,
        6.1064967595392e-17
      ],
      "scale": [
        84.3892517089844,
        2.02593946456909,
        12.1079092025757
      ],
      "translation": [
        112.557662963867,
        -4.89190912246704,
        -36.3393363952637
      ]
    },
    {
      "mesh": 2,
      "name": "pCube3"
    },
    {
      "children": [
        8
      ],
      "name": "pasted__pCube1",
      "scale": [
        187.491439819336,
        2.09862351417542,
        56.258186340332
      ],
      "translation": [
        77.4541091918945,
        0.160433322191238,
        -37.6165428161621
      ]
    },
    {
      "mesh": 3,
      "name": "pasted__pCube1"
    },
    {
      "children": [
        10
      ],
      "name": "pCylinder1",
      "scale": [
        6.85708570480347,
        3.20884037017822,
        6.85708570480347
      ],
      "translation": [
        4.37606906890869,
        1.35498094558716,
        -39.5907287597656
      ]
    },
    {
      "mesh": 4,
      "name": "pCylinder1"
    },
    {
      "children": [
        12
      ],
      "name": "pCube4",
      "rotation": [
        0.998306393623352,
        -3.5621730714402e-18,
        0.0581747032701969,
        6.11286406502238e-17
      ],
      "scale": [
        57.8659515380859,
        3.34252023696899,
        25.3426074981689
      ],
      "translation": [
        145.665313720703,
        0.770304322242737,
        -42.186710357666
      ]
    },
    {
      "mesh": 5,
      "name": "pCube4"
    }
  ],
  "samplers": [
    {
      "magFilter": 9729,
      "minFilter": 9985,
      "wrapS": 10497,
      "wrapT": 10497
    }
  ],
  "scene": 0,
  "scenes": [
    {
      "name": "Scene",
      "nodes": [
        0
      ]
    }
  ],
  "textures": [
    {
      "sampler": 0,
      "source": 0
    },
    {
      "sampler": 0,
      "source": 1
    },
    {
      "sampler": 0,
      "source": 2
    },
    {
      "sampler": 0,
      "source": 3
    },
    {
      "sampler": 0,
      "source": 4
    },
    {
      "sampler": 0,
      "source": 5
    },
    {
      "sampler": 0,
      "source": 6
    },
    {
      "sampler": 0,
      "source": 7
    },
    {
      "sampler": 0,
      "source": 8
    },
    {
      "sampler": 0,
      "source": 9
    },
    {
      "sampler": 0,
      "source": 10
    },
    {
      "sampler": 0,
      "source": 11
    },
    {
      "sampler": 0,
      "source": 12
    },
    {
      "sampler": 0,
      "source": 13
    },
    {
      "sampler": 0,
      "source": 14
    },
    {
      "sampler": 0,
      "source": 15
    },
    {
      "sampler": 0,
      "source": 16
    },
    {
      "sampler": 0,
      "source": 17
    }
  ]
}